# xmcd
#
# Track frame offsets: 
#        150
#        65074
#        88380
#        110683
#        126567
#        161840
#        175354
#        214663
#        221818
#        246598
#        277818
#        296515
#
# Disc length: 4456 seconds
#
# Revision: 0
# Processed by: cddbd v1.5.2PL0 Copyright (c) Steve Scherf et al.
# Submitted via: ExactAudioCopyFreeDBPlugin 1.0
#
DISCID=cd11660c
DTITLE=Mario Lanza, Frances Yeend, Ormandy - Mario Lanza, Francis Yeen
DTITLE=d, Eugene Ormandy at Hollywood Bowl, 1947
DYEAR=1947
DGENRE=Classical
TTITLE0=Johann Sebastian Bach: Passacaglia and Fugue in C minor, BWV 5
TTITLE0=82
TTITLE1=Gaetano Donizetti: L’elisir d'amore - Una furtiva lagrima Nemo
TTITLE1=rino
TTITLE2=Umberto Giordano: Andrea Chenier - Un di all’azzuro spazio And
TTITLE2=rea Chenier
TTITLE3=Giacomo Puccini: Tosca - E lucean le stelle Cavardossi
TTITLE4=Felix Mendelssohn: Symphony No. 4 in A major, Op. 90 - Allegro
TTITLE4=vivace
TTITLE5=Wolfgang Amadeus Mozart: Alleluja! KV165 Soprano
TTITLE6=Carl Maria von Weber: Der Freischutz - Wie nahte mir der Schlu
TTITLE6=mmer Agathe
TTITLE7=Richard Strauss: Kling! Soprano
TTITLE8=Giuseppe Verdi: La traviata - Mia Violetta!... Parigi, o cara 
TTITLE8=Alfredo. Violetta
TTITLE9=Giacomo Puccini: Madama Butterfly - Vogliatemi bene, un bene p
TTITLE9=iccolino Butterfly. Pinkerton
TTITLE10=Giacomo Puccini La Boheme - O soave fanciulla Rodolfo. Mimi
TTITLE11=ohann Strauss II: An der schonen blauen Donau
EXTD=
EXTT0=
EXTT1=
EXTT2=
EXTT3=
EXTT4=
EXTT5=
EXTT6=
EXTT7=
EXTT8=
EXTT9=
EXTT10=
EXTT11=
PLAYORDER=
